{
    "asset" : {
        "generator" : "Khronos glTF Blender I/O v1.0.5",
        "version" : "2.0"
    },
    "scene" : 0,
    "scenes" : [
        {
            "name" : "Scene",
            "nodes" : [
                8
            ]
        }
    ],
    "nodes" : [
        {
            "name" : "Head",
            "rotation" : [
                -4.917033447071617e-09,
                5.6756697119908495e-08,
                -0.010931814089417458,
                0.9999402761459351
            ],
            "scale" : [
                0.9999999403953552,
                0.9999998807907104,
                1
            ],
            "translation" : [
                6.650964501364598e-13,
                1.6856374740600586,
                -6.651161046889679e-15
            ]
        },
        {
            "name" : "ArmL",
            "rotation" : [
                -2.0878231055121432e-07,
                -8.195522838150282e-08,
                -0.705668032169342,
                0.7085426449775696
            ],
            "scale" : [
                0.9999998807907104,
                0.9999998807907104,
                1
            ],
            "translation" : [
                0.776431679725647,
                1.2052098512649536,
                3.4839538898268074e-07
            ]
        },
        {
            "name" : "ArmR",
            "rotation" : [
                2.4247285068668134e-07,
                -3.127602496988402e-07,
                0.7017887830734253,
                0.7123851180076599
            ],
            "scale" : [
                0.9999998807907104,
                0.9999998807907104,
                1
            ],
            "translation" : [
                -0.7931221723556519,
                1.1772539615631104,
                4.1136632944471785e-07
            ]
        },
        {
            "children" : [
                0,
                1,
                2
            ],
            "name" : "Torso",
            "rotation" : [
                2.0373909137560986e-07,
                -4.243742068865686e-08,
                0.021962851285934448,
                0.9997588396072388
            ],
            "scale" : [
                1,
                1.0000001192092896,
                1
            ],
            "translation" : [
                3.3237301799715624e-15,
                0.280029833316803,
                -2.0539125955565396e-15
            ]
        },
        {
            "name" : "LegR",
            "rotation" : [
                -8.097901627479587e-06,
                9.790716148927459e-07,
                -0.9999408721923828,
                0.01087894942611456
            ],
            "scale" : [
                1.0006135702133179,
                1,
                1
            ],
            "translation" : [
                -0.4016925096511841,
                0.08839641511440277,
                2.3668768278639618e-08
            ]
        },
        {
            "name" : "LegL",
            "rotation" : [
                -8.069902833085507e-06,
                5.5853664804317305e-08,
                -0.9997366666793823,
                0.022950701415538788
            ],
            "scale" : [
                0.9998054504394531,
                0.9999998807907104,
                1
            ],
            "translation" : [
                0.40195247530937195,
                0.15182754397392273,
                7.85576688144829e-08
            ]
        },
        {
            "children" : [
                3,
                4,
                5
            ],
            "name" : "Pelvis",
            "rotation" : [
                -2.404885321993788e-07,
                2.00675920325466e-08,
                -0.016486702486872673,
                0.9998641014099121
            ],
            "scale" : [
                1,
                0.9999999403953552,
                1
            ],
            "translation" : [
                0.009232396259903908,
                -0.03692930191755295,
                0
            ]
        },
        {
            "mesh" : 0,
            "name" : "Sphere",
            "skin" : 0
        },
        {
            "children" : [
                7,
                6
            ],
            "name" : "Armature",
            "translation" : [
                -0.01567130908370018,
                -0.022584766149520874,
                0.001051783561706543
            ]
        }
    ],
    "meshes" : [
        {
            "name" : "Sphere",
            "primitives" : [
                {
                    "attributes" : {
                        "POSITION" : 0,
                        "NORMAL" : 1,
                        "TEXCOORD_0" : 2,
                        "JOINTS_0" : 3,
                        "WEIGHTS_0" : 4
                    },
                    "indices" : 5
                }
            ]
        }
    ],
    "skins" : [
        {
            "inverseBindMatrices" : 6,
            "joints" : [
                6,
                3,
                0,
                1,
                2,
                4,
                5
            ],
            "name" : "Armature"
        }
    ],
    "accessors" : [
        {
            "bufferView" : 0,
            "componentType" : 5126,
            "count" : 286,
            "max" : [
                2.923605442047119,
                3.7983880043029785,
                0.8509359955787659
            ],
            "min" : [
                -2.941521406173706,
                -2.2746615409851074,
                -0.9807853102684021
            ],
            "type" : "VEC3"
        },
        {
            "bufferView" : 1,
            "componentType" : 5126,
            "count" : 286,
            "type" : "VEC3"
        },
        {
            "bufferView" : 2,
            "componentType" : 5126,
            "count" : 286,
            "type" : "VEC2"
        },
        {
            "bufferView" : 3,
            "componentType" : 5123,
            "count" : 286,
            "type" : "VEC4"
        },
        {
            "bufferView" : 4,
            "componentType" : 5126,
            "count" : 286,
            "type" : "VEC4"
        },
        {
            "bufferView" : 5,
            "componentType" : 5123,
            "count" : 306,
            "type" : "SCALAR"
        },
        {
            "bufferView" : 6,
            "componentType" : 5126,
            "count" : 7,
            "type" : "MAT4"
        }
    ],
    "bufferViews" : [
        {
            "buffer" : 0,
            "byteLength" : 3432,
            "byteOffset" : 0
        },
        {
            "buffer" : 0,
            "byteLength" : 3432,
            "byteOffset" : 3432
        },
        {
            "buffer" : 0,
            "byteLength" : 2288,
            "byteOffset" : 6864
        },
        {
            "buffer" : 0,
            "byteLength" : 2288,
            "byteOffset" : 9152
        },
        {
            "buffer" : 0,
            "byteLength" : 4576,
            "byteOffset" : 11440
        },
        {
            "buffer" : 0,
            "byteLength" : 612,
            "byteOffset" : 16016
        },
        {
            "buffer" : 0,
            "byteLength" : 448,
            "byteOffset" : 16628
        }
    ],
    "buffers" : [
        {
            "byteLength" : 17076,
            "uri" : "data:application/octet-stream;base64,"
        }
    ]
}
